<svg height="475pt" viewBox="-64 0 475 475" width="475pt" xmlns="http://www.w3.org/2000/svg"><path d="m337.480469 125.820312v299.179688c0 22.089844-17.910157 40-40 40h-247.480469c-22.089844 0-40-17.910156-40-40v-299.179688c0-22.089843 17.910156-40 40-40h44.710938c-.132813 1.136719-.199219 2.277344-.199219 3.417969v24.839844h158.457031v-24.839844c.003906-1.132812-.0625-2.261719-.199219-3.386719l.199219-.03125h44.511719c22.089843 0 40 17.910157 40 40zm0 0" fill="#00efd1"/><path d="m94.710938 85.820312c1.226562-10.722656 8.117187-19.957031 18.050781-24.179687l14.289062-6.089844c8.75-3.722656 14.429688-12.3125 14.429688-21.820312 0-13.105469 10.625-23.730469 23.730469-23.730469h17.058593c13.105469 0 23.730469 10.625 23.730469 23.730469-.003906 9.507812 5.679688 18.101562 14.429688 21.820312l14.289062 6.089844c9.941406 4.226563 16.835938 13.476563 18.050781 24.210937.136719 1.125.203125 2.253907.199219 3.386719v24.839844h-158.457031v-24.839844c0-1.140625.066406-2.28125.199219-3.417969zm0 0" fill="#00acea"/><g fill="#083863"><path d="m297.480469 75.820312h-36.855469c-3.746094-10.519531-11.714844-18.996093-21.984375-23.378906l-14.296875-6.09375c-5.0625-2.148437-8.347656-7.117187-8.34375-12.617187-.023438-18.621094-15.109375-33.7070315-33.726562-33.730469h-17.0625c-18.628907 0-33.730469 15.101562-33.730469 33.730469.003906 5.503906-3.285157 10.476562-8.351563 12.621093l-14.289062 6.085938c-10.269532 4.386719-18.238282 12.863281-21.988282 23.382812h-36.851562c-27.601562.03125-49.96875 22.398438-50 50v299.179688c.03125 27.601562 22.398438 49.96875 50 50h247.480469c27.601562-.03125 49.96875-22.398438 50-50v-299.179688c-.03125-27.601562-22.398438-49.96875-50-50zm-192.96875 13.417969c.015625-8.011719 4.800781-15.246093 12.167969-18.398437l14.28125-6.085938c12.453124-5.277344 20.535156-17.5 20.519531-31.023437 0-7.582031 6.148437-13.730469 13.730469-13.730469h17.0625c7.578124.007812 13.71875 6.152344 13.726562 13.730469-.003906 13.515625 8.070312 25.726562 20.511719 31.019531l14.300781 6.09375c6.617188 2.816406 11.214844 8.976562 12.027344 16.128906 0 .039063.007812.074219.015625.113282.085937.714843.125 1.433593.121093 2.152343v14.839844h-138.464843zm222.96875 335.761719c-.019531 16.5625-13.441407 29.980469-30 30h-247.480469c-16.5625-.019531-29.980469-13.4375-30-30v-299.179688c.019531-16.5625 13.4375-29.980468 30-30h34.511719v18.257813c0 5.523437 4.476562 10 10 10h158.457031c5.523438 0 10-4.476563 10-10v-18.257813h34.511719c16.558593.019532 29.980469 13.4375 30 30zm0 0"/><path d="m279.378906 286.539062h-211.277344c-5.523437 0-10 4.476563-10 10 0 5.523438 4.476563 10 10 10h211.277344c5.523438 0 10-4.476562 10-10 0-5.523437-4.476562-10-10-10zm0 0"/><path d="m68.101562 227.871094h87.328126c5.523437 0 10-4.476563 10-10 0-5.523438-4.476563-10-10-10h-87.328126c-5.523437 0-10 4.476562-10 10 0 5.523437 4.476563 10 10 10zm0 0"/><path d="m279.378906 359.921875h-211.277344c-5.523437 0-10 4.476563-10 10 0 5.519531 4.476563 10 10 10h211.277344c5.523438 0 10-4.480469 10-10 0-5.523437-4.476562-10-10-10zm0 0"/></g></svg>