<svg height="426pt" viewBox="0 -10 426.9 426" width="426pt" xmlns="http://www.w3.org/2000/svg"><path d="m416.898438 157.738281v198.710938c0 22.09375-17.90625 40-40 40h-326.898438c-22.089844 0-40-17.90625-40-40v-198.710938zm0 0" fill="#00acea"/><path d="m332.101562 46.160156h44.796876c22.09375 0 40 17.910156 40 40v71.578125h-406.898438v-71.578125c0-22.089844 17.910156-40 40-40zm0 0" fill="#00efd1"/><path d="m376.898438 36.160156h-34.796876v-25.710937c0-5.523438-4.480468-10-10-10-5.523437 0-10 4.476562-10 10v25.710937h-212.832031v-25.710937c0-5.523438-4.476562-10-10-10-5.523437 0-10 4.476562-10 10v25.710937h-39.269531c-27.601562.03125-49.96875 22.398438-50 50v270.289063c.03125 27.601562 22.398438 49.96875 50 50h326.898438c27.601562-.03125 49.96875-22.398438 50-50v-270.289063c-.03125-27.601562-22.398438-49.96875-50-50zm30 320.289063c-.015626 16.5625-13.4375 29.980469-30 30h-326.898438c-16.5625-.019531-29.980469-13.4375-30-30v-188.710938h386.898438zm-386.898438-208.710938v-61.578125c.019531-16.5625 13.4375-29.980468 30-30h39.269531v25.699219c0 5.523437 4.480469 10 10 10 5.523438 0 10-4.476563 10-10v-25.699219h212.832031v25.699219c0 5.523437 4.476563 10 10 10 5.523438 0 10-4.476563 10-10v-25.699219h34.800782c16.558594.019532 29.980468 13.4375 30 30v61.578125zm0 0" fill="#083863"/></svg>