<svg height="410pt" viewBox="0 -52 410.00001 410" width="410pt" xmlns="http://www.w3.org/2000/svg"><path d="m397.878906 28.921875-.179687.066406-178.230469 116.332031c-10.109375 6.617188-23.203125 6.523438-33.21875-.242187l-173.210938-116.609375-.679687-.148438c4.691406-11.109374 15.582031-18.324218 27.640625-18.320312h330c12.292969-.007812 23.34375 7.492188 27.878906 18.921875zm0 0" fill="#00acea"/><path d="m400 40v225.820312c0 16.566407-13.429688 30-30 30h-330c-16.570312 0-30-13.433593-30-30v-225.820312c-.007812-4.011719.796875-7.984375 2.359375-11.679688l.679687.148438 173.210938 116.609375c10.015625 6.765625 23.109375 6.859375 33.21875.242187l178.230469-116.332031.179687-.066406c1.410156 3.523437 2.128906 7.285156 2.121094 11.078125zm0 0" fill="#00efd1"/><path d="m370 0h-330c-10.609375-.00390625-20.789062 4.207031-28.289062 11.710938-7.503907 7.5-11.71484425 17.679687-11.710938 28.289062v225.820312c.0234375 22.082032 17.917969 39.976563 40 40h330c22.082031-.023437 39.976562-17.917968 40-40v-225.820312c0-22.089844-17.910156-40-40-40zm0 20c5.320312-.015625 10.425781 2.101562 14.171875 5.878906l-170.179687 111.074219c-6.742188 4.425781-15.484376 4.359375-22.15625-.167969l-165.480469-111.40625c3.699219-3.460937 8.578125-5.382812 13.644531-5.378906zm0 265.820312h-330c-11.039062-.011718-19.988281-8.960937-20-20v-220.609374l160.652344 108.15625c13.339844 9.042968 30.8125 9.171874 44.285156.328124l165.0625-107.738281v219.863281c-.011719 11.039063-8.960938 19.988282-20 20zm0 0" fill="#083863"/></svg>