<svg height="458pt" viewBox="0 -58 458.37843 458" width="458pt" xmlns="http://www.w3.org/2000/svg"><path d="m448.378906 153.410156-90.152344 67.289063h-1.109374v-.328125c-82.4375-31.054688-173.359376-31.054688-255.800782 0v.328125h-.597656l-90.722656-67.289063 219.191406-143.21875zm0 0" fill="#00efd1"/><path d="m357.117188 220.699219v111.871093c-82.441407-31.050781-173.359376-31.050781-255.800782 0v-112.199218c82.441406-31.054688 173.363282-31.054688 255.800782 0zm0 0" fill="#00acea"/><path d="m453.847656 145.039062-219.191406-143.222656c-3.320312-2.171875-7.613281-2.171875-10.9375 0l-219.191406 143.222656c-2.738282 1.789063-4.425782 4.804688-4.52343775 8.070313-.09765625 3.269531 1.41015575 6.378906 4.03515575 8.328125l87.277344 64.742188v106.390624c0 3.28125 1.613282 6.355469 4.3125 8.222657 2.699219 1.867187 6.140625 2.292969 9.214844 1.132812 80.164062-30.203125 168.582031-30.203125 248.75 0 3.070312 1.160157 6.515625.734375 9.214844-1.132812 2.699218-1.867188 4.308594-4.941407 4.308594-8.222657v-106.027343l87.242187-65.121094c2.617187-1.953125 4.117187-5.058594 4.015625-8.324219s-1.792969-6.273437-4.527344-8.058594zm-106.730468 173.375c-76.527344-25.519531-159.269532-25.519531-235.800782 0v-91.035156c76.273438-27.054687 159.527344-27.058594 235.800782-.015625v91.054688zm9.386718-108.910156c-82.109375-29.863281-172.105468-29.902344-254.242187-.109375l-74.773438-55.464843 201.699219-131.796876 201.742188 131.820313zm0 0" fill="#083863"/></svg>