<svg height="412pt" viewBox="0 0 412 412.002" width="412pt" xmlns="http://www.w3.org/2000/svg"><path d="m290.460938 206c0 46.644531-37.8125 84.460938-84.460938 84.460938-46.644531 0-84.460938-37.816407-84.460938-84.460938s37.816407-84.460938 84.460938-84.460938c46.648438 0 84.460938 37.816407 84.460938 84.460938zm0 0" fill="#00acea"/><path d="m402 177.269531v57.460938l-42.128906 4.109375c-4.132813 18.636718-11.617188 36.367187-22.089844 52.332031l27.230469 32.839844-40.589844 40.527343-32.882813-27.1875c-15.941406 10.546876-33.710937 18.03125-52.398437 22.058594l-4.109375 42.589844h-57.539062l-4.109376-42.589844c-18.660156-4.125-36.417968-11.601562-52.410156-22.058594l-32.882812 27.1875-40.589844-40.527343 27.230469-32.839844c-10.554688-15.917969-18.046875-33.664063-22.089844-52.332031l-42.640625-4.109375v-57.460938l42.640625-4.109375c4.136719-18.636718 11.621094-36.367187 22.089844-52.332031l-27.230469-32.839844 40.589844-40.527343 32.882812 27.1875c15.945313-10.546876 33.71875-18.027344 52.410156-22.058594l4.109376-42.589844h57.539062l4.109375 42.589844c18.65625 4.125 36.410156 11.601562 52.398437 22.058594l32.882813-27.1875 40.078125 40.527343-27.230469 32.839844c10.558594 15.917969 18.050781 33.664063 22.089844 52.332031zm-111.539062 28.730469c0-46.644531-37.8125-84.460938-84.460938-84.460938-46.644531 0-84.460938 37.816407-84.460938 84.460938s37.816407 84.460938 84.460938 84.460938c46.648438 0 84.464844-37.8125 84.460938-84.460938zm0 0" fill="#00efd1"/><g fill="#083863"><path d="m402.960938 167.316406-35.550782-3.425781c-3.933594-14.851563-9.929687-29.078125-17.808594-42.265625l22.601563-27.25c3.28125-3.957031 3.027344-9.757812-.589844-13.414062l-40.078125-40.53125c-3.644531-3.683594-9.492187-3.976563-13.484375-.675782l-27.359375 22.625c-13.210937-7.847656-27.4375-13.851562-42.277344-17.839844l-3.425781-35.5c-.496093-5.128906-4.804687-9.04296825-9.957031-9.039062h-57.542969c-5.148437 0-9.457031 3.914062-9.953125 9.039062l-3.425781 35.492188c-14.875 3.929688-29.128906 9.921875-42.347656 17.800781l-27.300781-22.574219c-3.972657-3.285156-9.789063-3.011718-13.4375.628907l-40.589844 40.53125c-3.65625 3.648437-3.929688 9.484375-.632813 13.460937l22.644531 27.308594c-7.851562 13.1875-13.855468 27.386719-17.851562 42.203125l-35.554688 3.425781c-5.125.496094-9.039062 4.804688-9.039062 9.953125v57.460938c0 5.152343 3.914062 9.460937 9.042969 9.953125l35.546875 3.425781c3.933594 14.851563 9.929687 29.078125 17.808594 42.265625l-22.597657 27.25c-3.296875 3.976562-3.023437 9.808594.632813 13.460938l40.589844 40.527343c3.644531 3.644531 9.464843 3.917969 13.4375.632813l27.359374-22.625c13.214844 7.847656 27.445313 13.851562 42.289063 17.839844l3.425781 35.5c.496094 5.128906 4.804688 9.042968 9.953125 9.042968h57.539063c5.152344 0 9.460937-3.914062 9.957031-9.042968l3.421875-35.492188c14.875-3.925781 29.128906-9.917969 42.34375-17.796875l27.300781 22.570313c3.96875 3.285156 9.789063 3.015624 13.4375-.628907l40.589844-40.527343c3.65625-3.652344 3.929687-9.484376.632813-13.460938l-22.644532-27.308594c7.855469-13.191406 13.863282-27.394531 17.859375-42.214844l35.050781-3.421874c5.121094-.5 9.023438-4.804688 9.023438-9.949219v-57.460938c-.003906-5.152343-3.914062-9.457031-9.039062-9.953125zm-10.960938 58.339844-33.097656 3.230469c-4.324219.421875-7.882813 3.589843-8.800782 7.835937-3.886718 17.457032-10.902343 34.066406-20.714843 49.015625-2.371094 3.667969-2.085938 8.453125.699219 11.8125l21.410156 25.824219-27.707032 27.664062-25.875-21.398437c-3.398437-2.8125-8.242187-3.0625-11.914062-.613281-14.902344 9.847656-31.507812 16.835937-48.964844 20.605468-4.257812.917969-7.429687 4.484376-7.847656 8.816407l-3.238281 33.550781h-39.378907l-3.234374-33.550781c-.417969-4.332031-3.59375-7.894531-7.847657-8.8125-17.480469-3.882813-34.113281-10.894531-49.097656-20.695313-3.664063-2.355468-8.429687-2.074218-11.789063.703125l-25.875 21.398438-27.703124-27.664063 21.410156-25.824218c2.820312-3.402344 3.074218-8.257813.621094-11.933594-9.855469-14.878906-16.855469-31.460938-20.636719-48.898438-.921875-4.253906-4.484375-7.421875-8.8125-7.839844l-33.605469-3.234374v-39.296876l33.601562-3.238281c4.328126-.417969 7.894532-3.585937 8.8125-7.835937 3.890626-17.457032 10.910157-34.066406 20.71875-49.023438 2.367188-3.664062 2.085938-8.445312-.699218-11.808594l-21.414063-25.820312 27.707031-27.667969 25.875 21.402344c3.398438 2.808594 8.238282 3.0625 11.910157.617187 14.910156-9.847656 31.515625-16.835937 48.980469-20.609374 4.253906-.917969 7.425781-4.484376 7.84375-8.816407l3.234374-33.550781h39.378907l3.238281 33.550781c.417969 4.332031 3.589844 7.894531 7.84375 8.8125 17.480469 3.882813 34.109375 10.894531 49.09375 20.695313 3.664062 2.359375 8.429688 2.074218 11.789062-.703125l25.828126-21.355469 27.28125 27.585938-21.449219 25.863281c-2.824219 3.40625-3.074219 8.257812-.621094 11.9375 9.855469 14.875 16.855469 31.457031 20.636719 48.898437.921875 4.25 4.484375 7.417969 8.8125 7.835938l33.601562 3.238281zm0 0"/><path d="m206 111.539062c-52.167969 0-94.460938 42.292969-94.460938 94.460938s42.292969 94.460938 94.460938 94.460938 94.460938-42.292969 94.460938-94.460938c-.058594-52.144531-42.316407-94.402344-94.460938-94.460938zm0 168.921876c-41.121094 0-74.460938-33.335938-74.460938-74.460938s33.339844-74.460938 74.460938-74.460938c41.125 0 74.460938 33.335938 74.460938 74.460938-.046876 41.105469-33.355469 74.414062-74.460938 74.460938zm0 0"/></g></svg>