<svg height="430pt" viewBox="0 -24 430 430" width="430pt" xmlns="http://www.w3.org/2000/svg"><path d="m420 205.789062v115.652344c0 27.613282-22.386719 50-50 50h-310c-27.613281 0-50-22.386718-50-50v-115.652344h132.710938s11.867187 59.882813 72.289062 59.882813 72.289062-59.882813 72.289062-59.882813zm0 0" fill="#00efd1"/><path d="m420 204.808594v.980468h-132.710938s-11.867187 59.882813-72.289062 59.882813-72.289062-59.882813-72.289062-59.882813h-132.710938v-.980468l67.589844-175.589844c4.457031-11.578125 15.582031-19.21875 27.988281-19.21875h218.84375c12.40625 0 23.53125 7.640625 27.988281 19.21875zm0 0" fill="#00acea"/><g fill="#083863"><path d="m361.742188 25.625c-6-15.394531-20.800782-25.5546875-37.320313-25.625h-218.84375c-16.519531.0703125-31.320313 10.234375-37.320313 25.628906l-67.589843 175.589844c-.441407 1.148438-.667969 2.363281-.667969 3.589844v116.632812c.0390625 33.121094 26.878906 59.960938 60 60h310c33.121094-.039062 59.960938-26.878906 60-60v-116.632812c0-1.226563-.226562-2.445313-.667969-3.589844zm-274.820313 7.1875c3-7.695312 10.398437-12.777344 18.65625-12.8125h218.84375c8.257813.035156 15.65625 5.117188 18.65625 12.8125l62.734375 162.976562h-118.523438c-4.773437 0-8.878906 3.375-9.808593 8.058594-2.320313 9.363282-6.339844 18.21875-11.859375 26.132813-11.980469 17.046875-29.011719 25.691406-50.621094 25.691406-51.253906 0-62.054688-49.742187-62.480469-51.824219-.929687-4.683594-5.035156-8.058594-9.808593-8.058594h-118.523438zm283.078125 328.628906h-310c-22.082031-.027344-39.976562-17.921875-40-40v-105.652344h115.148438c3.035156 9.136719 7.371093 17.789063 12.867187 25.691407 10.960937 15.597656 31.476563 34.191406 66.984375 34.191406 35.503906 0 56.023438-18.59375 66.984375-34.191406 5.496094-7.902344 9.828125-16.554688 12.867187-25.691407h115.148438v105.652344c-.023438 22.078125-17.917969 39.972656-40 40zm0 0"/><path d="m146.871094 91.519531h136.257812c5.523438 0 10-4.476562 10-10 0-5.523437-4.476562-10-10-10h-136.257812c-5.523438 0-10 4.476563-10 10 0 5.523438 4.476562 10 10 10zm0 0"/><path d="m123.289062 149.648438h183.421876c5.523437 0 10-4.476563 10-10 0-5.519532-4.476563-10-10-10h-183.421876c-5.523437 0-10 4.480468-10 10 0 5.523437 4.476563 10 10 10zm0 0"/></g></svg>